<svg width="80" height="16" viewBox="0 0 80 16" fill="none" xmlns="http://www.w3.org/2000/svg">
<g clip-path="url(#clip0_288_9403)">
<path d="M17.9439 15.6079H14.1797L13.3113 9.23538C13.2381 8.66371 13.1825 8.16517 13.1492 7.73531C13.1026 7.3121 13.056 6.71163 13.0071 5.9339C12.885 6.63186 12.6984 7.40959 12.443 8.26931C12.3897 8.43771 12.3497 8.58173 12.3209 8.70138L10.3133 15.6079H7.62837L5.62079 8.70138C5.6008 8.58616 5.56083 8.44214 5.49865 8.26931C5.21661 7.36306 5.03006 6.58533 4.94345 5.9339C4.89015 6.67174 4.83907 7.22347 4.79244 7.58464C4.77245 7.77298 4.74136 8.04773 4.70139 8.41112C4.66141 8.7745 4.63032 9.04925 4.61033 9.23759L3.74201 15.6101H0L2.28074 0.866455H6.26703L8.49669 8.46873C8.53667 8.61053 8.56332 8.70138 8.57664 8.74126C8.77207 9.37276 8.9031 9.94885 8.96972 10.474C8.98305 10.2923 9.03412 9.9976 9.12073 9.58768C9.14738 9.48798 9.24954 9.10686 9.42276 8.451L11.6768 0.866455H15.6742L17.9439 15.6079Z" fill="white"/>
<path d="M23.8931 15.6079V5.43753H27.4863V15.6079H23.8931ZM24.3461 2.8185H24.3661C24.3661 2.44182 24.4971 2.13383 24.7592 1.89231C25.0212 1.63085 25.3388 1.50012 25.7074 1.50012C26.0983 1.50012 26.4181 1.6242 26.6713 1.87237C26.9244 2.12053 27.0488 2.43517 27.0488 2.8185C27.0488 3.20847 26.9178 3.52976 26.6557 3.78457C26.4003 4.04603 26.0828 4.17676 25.7074 4.17676C25.3232 4.17676 25.0012 4.03938 24.7392 3.76463C24.4771 3.50982 24.3461 3.19518 24.3461 2.8185Z" fill="white"/>
<path d="M34.5349 15.6078V5.4375H37.8239V7.50258C38.288 6.69605 38.8388 6.09336 39.4761 5.69009C40.0935 5.30677 40.8441 5.11621 41.7258 5.11621C42.392 5.11621 42.9828 5.21592 43.5002 5.41755C44.0132 5.64578 44.4285 5.95377 44.7461 6.34374C45.0348 6.73372 45.228 7.14585 45.3212 7.58235C45.4367 8.13851 45.4945 8.87414 45.4945 9.78703V15.6078H41.8812V10.1593C41.8812 9.3328 41.7502 8.74341 41.4882 8.38667C41.2261 8.01664 40.7997 7.83273 40.209 7.83273C39.4717 7.83273 38.9276 8.10749 38.5789 8.65921C38.237 9.20872 38.066 10.1017 38.066 11.3381V15.6078H34.5349Z" fill="white"/>
<path d="M63.1208 -0.00012207V15.6077H59.8096V13.957C59.3521 14.6483 58.8347 15.1579 58.2551 15.488C57.7176 15.8315 57.0847 16.0021 56.3585 16.0021C54.9328 16.0021 53.7935 15.5058 52.943 14.5109C52.0924 13.5182 51.666 12.191 51.666 10.5336C51.666 8.92274 52.0924 7.61101 52.9474 6.5962C53.7957 5.61018 54.8928 5.11607 56.2364 5.11607C57.098 5.11607 57.7976 5.2756 58.335 5.59024C58.8524 5.8805 59.3366 6.39456 59.7874 7.13684C59.7607 6.95515 59.7341 6.68039 59.7074 6.31036C59.6808 5.90709 59.6675 5.57695 59.6675 5.32213V-0.00012207H63.1208ZM59.9317 10.538C59.9317 9.74036 59.7274 9.11773 59.3166 8.66793C58.8791 8.2137 58.3017 7.98548 57.5799 7.98548C56.8538 7.98548 56.2808 8.2137 55.8633 8.66793C55.4458 9.12438 55.237 9.74701 55.237 10.538C55.237 11.3357 55.4458 11.9628 55.8633 12.417C56.2741 12.8668 56.8449 13.0906 57.5799 13.0906C58.3061 13.0906 58.8858 12.8668 59.3166 12.417C59.7252 11.9672 59.9317 11.3401 59.9317 10.538Z" fill="white"/>
<path d="M73.3676 4.90112H75.202V8.69893H78.8929V10.476H75.202V14.2893H73.3676V10.4738H69.6611V8.69672H73.3676V4.90112Z" fill="#46AFC0" stroke="#46AFC0" stroke-width="0.0476057" stroke-miterlimit="10"/>
</g>
<defs>
<clipPath id="clip0_288_9403">
<rect width="79.3373" height="16" fill="white"/>
</clipPath>
</defs>
</svg>
