<svg width="29" height="29" viewBox="0 0 29 29" fill="none" xmlns="http://www.w3.org/2000/svg">
<path d="M14.5 26.5833C7.82959 26.576 2.42398 21.1704 2.41666 14.5V14.2583C2.54949 7.61797 8.01678 2.32961 14.6579 2.41773C21.299 2.50584 26.624 7.9374 26.5806 14.5789C26.5373 21.2205 21.1417 26.582 14.5 26.5833ZM14.5 4.83333C9.16124 4.83333 4.83332 9.16124 4.83332 14.5C4.83332 19.8387 9.16124 24.1667 14.5 24.1667C19.8387 24.1667 24.1667 19.8387 24.1667 14.5C24.1607 9.16373 19.8363 4.83932 14.5 4.83333ZM12.7479 20.5417L11.0393 18.8319L15.3108 14.5604L11.0393 10.289L12.7479 8.57916L18.7292 14.5604L12.7491 20.5417H12.7479Z" fill="#2E3A59"/>
</svg>
