<svg width="61" height="65" viewBox="0 0 61 65" fill="none" xmlns="http://www.w3.org/2000/svg">
<ellipse cx="29.5175" cy="34.1712" rx="28.5175" ry="28.5175" fill="#5A7591"/>
<path d="M40.8588 51.7448C42.1527 46.2693 38.7606 40.7826 33.2869 39.4906C27.8132 38.1987 22.3246 41.5889 21.0327 47.0645C19.7407 52.54 23.131 58.0267 28.6065 59.3187C34.0802 60.6106 39.5669 57.2204 40.8588 51.7448Z" stroke="#44ADBF" stroke-width="1.48289" stroke-miterlimit="10"/>
<path d="M40.8586 51.8932C42.1524 46.4177 38.7603 40.931 33.2848 39.639C27.8092 38.3452 22.3225 41.7373 21.0306 47.211C19.7368 52.6866 23.1289 58.1732 28.6044 59.4652C34.0781 60.759 39.5648 57.3688 40.8586 51.8932Z" stroke="#44ADBF" stroke-width="1.48289" stroke-miterlimit="10"/>
<path d="M38.1467 56.6033C42.1245 52.6254 42.1245 46.1749 38.1467 42.1971C34.1688 38.2192 27.7183 38.2192 23.7405 42.1971C19.7626 46.1749 19.7626 52.6254 23.7405 56.6033C27.7183 60.583 34.1688 60.583 38.1467 56.6033Z" stroke="#44ADBF" stroke-width="1.48289" stroke-miterlimit="10"/>
<path d="M34.7825 50.3103C35.2829 48.1916 33.9706 46.0674 31.8501 45.5669C29.7314 45.0664 27.6072 46.3788 27.1067 48.4993C26.6062 50.618 27.9186 52.7422 30.0391 53.2427C32.1578 53.7432 34.282 52.4308 34.7825 50.3103Z" stroke="#44ADBF" stroke-width="1.48289" stroke-miterlimit="10"/>
<path d="M38.1467 56.6033C42.1245 52.6254 42.1245 46.1749 38.1467 42.1971C34.1688 38.2192 27.7183 38.2192 23.7405 42.1971C19.7626 46.1749 19.7626 52.6254 23.7405 56.6033C27.7183 60.583 34.1688 60.583 38.1467 56.6033Z" stroke="#44ADBF" stroke-width="1.48289" stroke-miterlimit="10"/>
<path d="M34.7825 50.3103C35.2829 48.1916 33.9706 46.0674 31.8501 45.5669C29.7314 45.0664 27.6072 46.3788 27.1067 48.4993C26.6062 50.618 27.9186 52.7422 30.0391 53.2427C32.1578 53.7432 34.282 52.4308 34.7825 50.3103Z" stroke="#44ADBF" stroke-width="1.48289" stroke-miterlimit="10"/>
<path d="M38.1467 56.6033C42.1245 52.6254 42.1245 46.1749 38.1467 42.1971C34.1688 38.2192 27.7183 38.2192 23.7405 42.1971C19.7626 46.1749 19.7626 52.6254 23.7405 56.6033C27.7183 60.583 34.1688 60.583 38.1467 56.6033Z" stroke="#44ADBF" stroke-width="1.48289" stroke-miterlimit="10"/>
<path d="M34.7825 50.3103C35.2829 48.1916 33.9706 46.0674 31.8501 45.5669C29.7314 45.0664 27.6072 46.3788 27.1067 48.4993C26.6062 50.618 27.9186 52.7422 30.0391 53.2427C32.1578 53.7432 34.282 52.4308 34.7825 50.3103Z" stroke="#44ADBF" stroke-width="1.48289" stroke-miterlimit="10"/>
<path d="M38.1467 56.6033C42.1245 52.6254 42.1245 46.1749 38.1467 42.1971C34.1688 38.2192 27.7183 38.2192 23.7405 42.1971C19.7626 46.1749 19.7626 52.6254 23.7405 56.6033C27.7183 60.583 34.1688 60.583 38.1467 56.6033Z" stroke="#44ADBF" stroke-width="1.48289" stroke-miterlimit="10"/>
<path d="M34.7825 50.3103C35.2829 48.1916 33.9706 46.0674 31.8501 45.5669C29.7314 45.0664 27.6072 46.3788 27.1067 48.4993C26.6062 50.618 27.9186 52.7422 30.0391 53.2427C32.1578 53.7432 34.282 52.4308 34.7825 50.3103Z" stroke="#44ADBF" stroke-width="1.48289" stroke-miterlimit="10"/>
<path d="M38.1467 56.6033C42.1245 52.6254 42.1245 46.1749 38.1467 42.1971C34.1688 38.2192 27.7183 38.2192 23.7405 42.1971C19.7626 46.1749 19.7626 52.6254 23.7405 56.6033C27.7183 60.583 34.1688 60.583 38.1467 56.6033Z" stroke="#44ADBF" stroke-width="1.48289" stroke-miterlimit="10"/>
<path d="M34.7825 50.3103C35.2829 48.1916 33.9706 46.0674 31.8501 45.5669C29.7314 45.0664 27.6072 46.3788 27.1067 48.4993C26.6062 50.618 27.9186 52.7422 30.0391 53.2427C32.1578 53.7432 34.282 52.4308 34.7825 50.3103Z" stroke="#44ADBF" stroke-width="1.48289" stroke-miterlimit="10"/>
<path d="M55.4471 50.5362C52.8558 47.5797 50.3145 45.1867 47.8344 43.2608C48.1142 44.3674 48.2774 45.5185 48.2774 46.7123C48.2774 54.4881 41.9733 60.7922 34.1955 60.7922C26.4196 60.7922 20.1155 54.4881 20.1155 46.7123C20.1155 43.2108 21.4001 40.0152 23.515 37.5517C14.0487 40.3711 7.58329 48.26 5.98363 50.5362C5.98363 50.5362 5.66295 50.6771 5.78529 50.8458C5.6611 51.0145 5.98363 51.1553 5.98363 51.1553C9.03837 54.8829 29.847 80.3515 55.4453 51.1553C55.4434 51.1572 55.7548 50.9366 55.6788 50.8458C55.7585 50.7531 55.4471 50.5362 55.4471 50.5362Z" fill="#FCFAED"/>
<path d="M34.1955 60.7921C41.9732 60.7921 48.2773 54.488 48.2773 46.7121C48.2773 45.5184 48.1123 44.3673 47.8343 43.2607C38.6404 36.1225 30.3048 35.5293 23.515 37.5516C21.4019 40.015 20.1155 43.2107 20.1155 46.7121C20.1155 54.4861 26.4214 60.7921 34.1955 60.7921Z" fill="#44ADBF" stroke="#44ADBF" stroke-width="0.185361" stroke-miterlimit="10"/>
<path d="M35.7761 44.4235V37.7709C32.3617 37.795 29.7593 40.5495 29.7593 43.9434C29.7593 47.3522 32.5805 50.3347 35.9874 50.3347C39.0199 50.3347 41.6001 48.0974 42.1414 45.4059C42.1729 45.2502 42.3601 43.6469 41.9449 42.4568C41.4073 40.9109 40.7493 40.2473 40.7512 40.075L35.7761 44.4235Z" fill="#3B4B5B"/>
<path d="M5.0452 14.9928C7.63469 12.0381 10.176 9.64324 12.6561 7.7192C12.3762 8.8258 12.2131 9.97689 12.2131 11.1706C12.2131 18.9465 18.5172 25.2506 26.2912 25.2506C34.0634 25.2506 40.3675 18.9465 40.3675 11.1706C40.3675 7.66915 39.083 4.47354 36.968 2.01009C46.4325 4.82943 52.8961 12.7184 54.4939 14.9946C54.4939 14.9946 54.8145 15.1355 54.6922 15.3042C54.8145 15.4728 54.4939 15.6137 54.4939 15.6137C51.441 19.3413 30.6361 44.8099 5.04335 15.6137C5.0452 15.6156 4.7338 15.395 4.80979 15.3042C4.73194 15.2115 5.0452 14.9928 5.0452 14.9928Z" fill="#FCFAED"/>
<path d="M26.2893 25.2488C18.5134 25.2488 12.2112 18.9447 12.2112 11.1688C12.2112 9.97511 12.3762 8.82402 12.6542 7.71742C21.8481 0.579178 30.18 -0.0121238 36.9679 2.01016C39.0811 4.4736 40.3675 7.66922 40.3675 11.1707C40.3656 18.9447 34.0633 25.2488 26.2893 25.2488Z" fill="#44ADBF" stroke="#44ADBF" stroke-width="0.185361" stroke-miterlimit="10"/>
<path d="M24.6693 11.3997V4.74707C28.0836 4.77117 30.6842 7.52562 30.6842 10.9196C30.6842 14.3284 27.8649 17.3108 24.458 17.3108C21.4273 17.3108 18.8471 15.0735 18.3059 12.3821C18.2744 12.2264 18.0871 10.623 18.5024 9.43299C19.0399 7.88708 19.6979 7.22349 19.6961 7.0511L24.6693 11.3997Z" fill="#3B4B5B"/>
</svg>
