<svg width="58" height="58" viewBox="0 0 58 58" fill="none" xmlns="http://www.w3.org/2000/svg">
<ellipse cx="28.5175" cy="29.1712" rx="28.5175" ry="28.5175" fill="#5A7591"/>
<path d="M30.6412 18.7029C37.0963 18.7029 43.5514 18.7024 50.0065 18.7045C50.3774 18.7045 50.758 18.6373 51.04 19.0686C51.3577 19.5541 51.2771 20.2163 50.8169 20.5045C50.318 20.8169 49.8139 21.117 49.3056 21.4073C48.3599 21.9486 47.407 22.4728 46.4624 23.0156C45.1799 23.7522 43.9011 24.499 42.6217 25.2427C42.0309 25.5862 41.4462 25.9478 40.8481 26.2731C40.6064 26.4048 40.5991 26.6078 40.6126 26.8609C40.7081 28.6743 40.7964 30.4887 40.8951 32.3021C41.017 34.5484 41.1471 36.7941 41.2732 39.0398C41.3093 39.6812 41.3305 40.3248 41.3811 40.9647C41.4142 41.3831 41.3429 41.8118 41.0387 41.961C40.7918 42.0819 40.439 42.0003 40.1606 41.9011C39.7924 41.7699 39.4551 41.5205 39.0962 41.3459C37.9759 40.8005 36.8474 40.2778 35.7297 39.7246C34.628 39.1797 33.532 38.6178 32.4407 38.0434C32.1648 37.8983 31.9991 37.9717 31.8276 38.2438C30.8184 39.8429 29.804 41.4383 28.7829 43.0266C28.2023 43.9299 27.5996 44.8136 27.017 45.7149C26.1973 46.9829 25.4009 48.272 24.5616 49.5209C24.4066 49.7513 24.0916 49.9599 23.8597 49.947C23.6551 49.9357 23.3943 49.6464 23.2781 49.4001C22.6903 48.1574 22.1392 46.8899 21.5799 45.6281C20.5118 43.2192 19.4483 40.8067 18.3792 38.3983C17.8317 37.1649 17.2718 35.9393 16.7238 34.7059C15.8117 32.6518 14.9068 30.5931 13.9952 28.539C13.3093 26.9936 12.6183 25.4519 11.9277 23.9097C11.3508 22.6216 10.7677 21.3376 10.1933 20.0474C9.82197 19.2127 10.1876 18.4411 11.0331 18.4452C17.5693 18.4777 24.1055 18.4633 30.6422 18.4633C30.6412 18.5433 30.6412 18.6229 30.6412 18.7029ZM34.4426 31.3642C33.9834 31.1194 33.5878 30.8859 33.1782 30.6948C31.59 29.9531 29.9971 29.2244 28.4053 28.4915C27.6022 28.1217 26.799 27.7529 25.9959 27.3826C24.4428 26.6657 22.8902 25.9478 21.3371 25.2309C20.5986 24.89 19.861 24.5475 19.1209 24.2113C18.1271 23.7599 17.1324 23.3111 16.1366 22.8669C15.6056 22.6298 15.0675 22.4139 14.538 22.1717C13.8423 21.853 13.1518 21.5178 12.4587 21.1898C12.4401 21.2244 12.4215 21.2585 12.4029 21.2931C16.275 30.0022 20.1466 38.7113 24.0348 47.456C27.5252 42.0597 30.9749 36.7264 34.4426 31.3642ZM19.83 20.4063C19.8326 20.4182 19.8357 20.4301 19.8383 20.442C20.7561 20.678 21.6713 20.9326 22.5927 21.1465C24.1918 21.5178 25.7955 21.8649 27.3971 22.2208C28.9998 22.5771 30.6014 22.9356 32.2046 23.2868C34.4441 23.7775 36.6878 24.2397 38.9216 24.7634C39.515 24.9029 40.0377 24.8621 40.5459 24.4912C40.6699 24.4009 40.7825 24.2836 40.9127 24.2092C42.4874 23.3054 44.0653 22.4113 45.6396 21.5059C46.0905 21.2467 46.5305 20.961 46.9752 20.6873C46.9664 20.647 46.9582 20.6062 46.9494 20.5659C37.9098 20.5127 28.8696 20.4595 19.83 20.4063ZM19.408 22.3189C19.4034 22.3401 19.3987 22.3607 19.3941 22.3819C20.0578 22.7109 20.7179 23.0513 21.3862 23.3668C22.1971 23.7501 23.0162 24.109 23.8297 24.484C25.3973 25.2066 26.9633 25.9333 28.5298 26.6574C29.2575 26.9936 29.9832 27.3356 30.7135 27.6635C32.0228 28.2518 33.3368 28.8272 34.645 29.4186C35.083 29.6164 35.5236 29.8163 35.9378 30.0724C36.1279 30.1897 36.2911 30.4206 36.4078 30.6437C36.7632 31.3234 37.0917 32.0232 37.4263 32.7174C37.855 33.6063 38.2749 34.5008 38.7083 35.3866C39.0213 36.0266 39.3503 36.6562 39.672 37.2904C39.6679 35.7936 39.5858 34.3361 39.5052 32.8785C39.3988 30.9531 39.2976 29.0271 39.1788 27.1031C39.1695 26.9534 39.0616 26.7313 38.9557 26.6863C38.6179 26.5417 38.2631 26.4462 37.9093 26.3656C36.3071 25.9989 34.7034 25.643 33.0997 25.2846C31.5368 24.9354 29.9744 24.5852 28.411 24.2397C26.4344 23.8033 24.4578 23.3653 22.4796 22.9397C21.458 22.7197 20.4317 22.525 19.408 22.3189ZM35.6191 32.4901C35.5158 32.6022 35.4595 32.6487 35.4193 32.7102C34.6796 33.8475 33.9436 34.9879 33.2025 36.1237C33.0227 36.3989 33.1798 36.4754 33.3605 36.5622C34.4317 37.0755 35.5029 37.5879 36.571 38.1101C36.8913 38.2666 37.196 38.468 37.5162 38.6235C37.9346 38.8265 38.3612 39.0046 38.7842 39.1937C38.8054 39.1632 38.826 39.1332 38.8472 39.1028C37.7791 36.9149 36.711 34.7276 35.6191 32.4901Z" fill="#3B4B5B"/>
<path d="M34.4425 31.3642C30.9748 36.7259 27.5256 42.0597 24.0357 47.456C20.1476 38.7108 16.2759 30.0017 12.4038 21.2931C12.4224 21.2585 12.441 21.2244 12.4596 21.1898C13.1522 21.5178 13.8428 21.853 14.539 22.1717C15.0684 22.4139 15.6061 22.6298 16.1375 22.8669C17.1333 23.3111 18.1281 23.7599 19.1218 24.2113C19.8619 24.5475 20.5995 24.89 21.3381 25.2309C22.8912 25.9477 24.4437 26.6657 25.9968 27.3826C26.7994 27.7529 27.6031 28.1217 28.4062 28.4915C29.9976 29.2244 31.5904 29.9531 33.1791 30.6948C33.5877 30.8859 33.9828 31.1194 34.4425 31.3642Z" fill="#F2EED1"/>
<path d="M19.8298 20.4063C28.87 20.4595 37.9096 20.5127 46.9497 20.5659C46.9585 20.6062 46.9668 20.647 46.9756 20.6873C46.5303 20.961 46.0903 21.2467 45.6399 21.5059C44.0662 22.4108 42.4878 23.3054 40.913 24.2092C40.7828 24.2836 40.6708 24.4009 40.5463 24.4913C40.0381 24.8616 39.5149 24.9024 38.9219 24.7634C36.6881 24.2392 34.4445 23.7769 32.205 23.2868C30.6018 22.9356 28.9996 22.5771 27.3975 22.2208C25.7958 21.8649 24.1926 21.5178 22.5931 21.1465C21.6716 20.9326 20.7564 20.678 19.8386 20.442C19.8355 20.4301 19.8324 20.4182 19.8298 20.4063Z" fill="#44ADBF"/>
<path d="M19.4082 22.3189C20.4324 22.5249 21.4582 22.7197 22.4803 22.9397C24.4585 23.3653 26.4351 23.8033 28.4117 24.2397C29.9751 24.5847 31.538 24.9349 33.1004 25.2846C34.7036 25.643 36.3078 25.9989 37.9099 26.3656C38.2637 26.4467 38.6186 26.5422 38.9564 26.6863C39.0617 26.7312 39.1702 26.9539 39.1795 27.1031C39.2988 29.0276 39.3995 30.953 39.5059 32.8785C39.5865 34.3361 39.6686 35.7936 39.6727 37.2904C39.3509 36.6561 39.0225 36.0265 38.709 35.3866C38.2756 34.5008 37.8557 33.6063 37.427 32.7174C37.0918 32.0227 36.7633 31.3234 36.4085 30.6437C36.2923 30.4205 36.1286 30.1902 35.9385 30.0724C35.5243 29.8162 35.0837 29.6164 34.6457 29.4185C33.3369 28.8277 32.0235 28.2523 30.7142 27.6635C29.9839 27.3355 29.2582 26.9936 28.5305 26.6574C26.9639 25.9328 25.3979 25.206 23.8304 24.484C23.0169 24.109 22.1978 23.7495 21.3869 23.3668C20.7185 23.0512 20.0585 22.7109 19.3948 22.3819C19.3989 22.3607 19.4036 22.3395 19.4082 22.3189Z" fill="#44ADBF"/>
<path d="M35.6191 32.4902C36.7115 34.7271 37.7796 36.9149 38.8477 39.1028C38.8265 39.1333 38.8058 39.1632 38.7847 39.1937C38.3616 39.0047 37.935 38.8265 37.5167 38.6235C37.1964 38.468 36.8917 38.2666 36.5715 38.1101C35.5034 37.5879 34.4322 37.0756 33.361 36.5622C33.1802 36.4754 33.0232 36.399 33.2029 36.1237C33.9441 34.9879 34.6801 33.8475 35.4197 32.7102C35.459 32.6487 35.5158 32.6028 35.6191 32.4902Z" fill="#3B4B5B"/>
</svg>
